Coordinates
version=1
nRows=6
nColumns=46
inDegrees=yes

Units are S.I. units (second, meters, Newtons, ...)
Angles are in degrees.

endheader
time	pelvis_tilt	pelvis_list	pelvis_rotation	pelvis_tx	pelvis_ty	pelvis_tz	bb_angle	bb_tx	bb_ty	bb_tz	hip_flexion_r	hip_adduction_r	hip_rotation_r	knee_angle_r	knee_angle_r_beta	ankle_angle_r	subtalar_angle_r	mtp_angle_r	crank_angle_r	hip_flexion_l	hip_adduction_l	hip_rotation_l	knee_angle_l	knee_angle_l_beta	ankle_angle_l	subtalar_angle_l	mtp_angle_l	crank_angle_l	lumbar_extension	lumbar_bending	lumbar_rotation	arm_flex_r	arm_add_r	arm_rot_r	elbow_flex_r	pro_sup_r	wrist_flex_r	wrist_dev_r	arm_flex_l	arm_add_l	arm_rot_l	elbow_flex_l	pro_sup_l	wrist_flex_l	wrist_dev_l
      0.00500000	    -31.10702223	     -1.12069936	     -2.64107555	      0.07787950	      1.04700913	     -0.21522915	      0.00000000	      0.50000000	      0.00000000	      0.25000000	     88.46406213	     -2.66440315	     -0.83920140	     64.54893181	      1.12659139	      6.34965066	     -1.69427368	      0.00000000	      0.00000000	     67.05907380	     -5.77596068	      4.15001727	     72.30307827	      1.26192678	      3.37703222	    -11.27185021	      0.00000000	      0.00000000	    -41.12298634	      0.33792565	      2.65456368	     89.62602512	     -4.80756296	     25.45156251	     45.72796894	     27.03021885	      0.00000000	      0.00000000	     89.51880114	     -7.41805815	     25.31019643	     46.00290867	     27.43926524	      0.00000000	      0.00000000
      0.01000000	    -31.14524611	     -1.17464924	     -2.72717488	      0.07792259	      1.04687517	     -0.21513362	      0.00000000	      0.50000000	      0.00000000	      0.25000000	     88.53203197	     -2.55887936	     -0.86243425	     64.62545645	      1.12792700	      6.48474125	     -1.63332121	      0.00000000	      0.00000000	     67.09928377	     -5.91384901	      4.10008799	     72.29715577	      1.26182341	      3.20106967	    -11.44143257	      0.00000000	      0.00000000	    -41.11047685	      0.35123203	      2.77516843	     89.62719463	     -4.72046869	     25.13078461	     45.51474628	     28.37597232	      0.00000000	      0.00000000	     89.49858652	     -7.41811189	     24.93289995	     46.04623271	     28.82035196	      0.00000000	      0.00000000
      0.01500000	    -31.15112922	     -1.27469873	     -2.55320854	      0.07799447	      1.04686787	     -0.21555800	      0.00000000	      0.50000000	      0.00000000	      0.25000000	     88.56828947	     -2.76227361	     -1.00909250	     64.74731232	      1.13005378	      6.48459421	     -1.68737355	      0.00000000	      0.00000000	     67.07123186	     -5.76108502	      4.31288433	     72.19775541	      1.26008854	      3.36462425	    -11.25684093	      0.00000000	      0.00000000	    -41.04543835	      0.55419317	      2.71919708	     89.62880770	     -4.75313206	     25.09550658	     44.80977595	     31.16306374	      0.00000000	      0.00000000	     89.51905645	     -7.19424700	     24.72875697	     45.00929985	     31.47036303	      0.00000000	      0.00000000
      0.02000000	    -31.06080281	     -1.23660702	     -2.73097171	      0.07806450	      1.04707287	     -0.21512524	      0.00000000	      0.50000000	      0.00000000	      0.25000000	     88.49695999	     -2.52938991	     -0.88266339	     64.77496100	      1.13053634	      6.51901439	     -1.72512895	      0.00000000	      0.00000000	     66.89893875	     -5.96210405	      4.14857866	     72.10987474	      1.25855474	      3.39024062	    -11.23905418	      0.00000000	      0.00000000	    -41.17549959	      0.39002107	      2.80691173	     89.62778969	     -4.71329323	     24.98674242	     44.85535626	     31.48557383	      0.00000000	      0.00000000	     89.51368676	     -7.34335080	     24.68541904	     45.31477421	     31.87521674	      0.00000000	      0.00000000
      0.02500000	    -30.82206611	     -1.34314134	     -3.19788405	      0.07796603	      1.04780417	     -0.21399752	      0.00000000	      0.50000000	      0.00000000	      0.25000000	     88.23845175	     -1.95622151	     -0.93157558	     64.72301285	      1.12962968	      6.37716067	     -1.93922038	      0.00000000	      0.00000000	     66.59206701	     -6.61526704	      3.92435630	     72.10481184	      1.25846637	      3.64955607	    -10.90774261	      0.00000000	      0.00000000	    -41.44876793	      0.11967525	      3.22849461	     89.63248024	     -5.01222794	     25.53548558	     45.24351545	     30.91982397	      0.00000000	      0.00000000	     89.53146013	     -7.60054429	     25.50866503	     45.45440680	     31.55694953	      0.00000000	      0.00000000
      0.03000000	    -31.17498633	     -1.19794573	     -2.80386951	      0.07798493	      1.04686847	     -0.21500775	      0.00000000	      0.50000000	      0.00000000	      0.25000000	     88.75723542	     -2.45155441	     -0.77332719	     65.02194803	      1.13484708	      6.56747661	     -1.75431940	      0.00000000	      0.00000000	     66.95297268	     -6.03834695	      4.04830874	     72.00181911	      1.25666881	      3.43096857	    -11.18761124	      0.00000000	      0.00000000	    -41.01322912	      0.29247380	      2.86274051	     89.62460896	     -4.96303289	     25.42313326	     44.93662638	     31.10162078	      0.00000000	      0.00000000	     89.51792061	     -7.50056630	     25.32680061	     45.28398888	     31.76374008	      0.00000000	      0.00000000
